<?xml version="1.0" encoding="UTF-8"?>
<svg xmlns="http://www.w3.org/2000/svg" viewBox="0 0 1024 683" width="1024" height="683">
  <!-- Ocean background -->
  <rect width="1024" height="683" fill="#1a3a52"/>
  
  <!-- Traced coastline -->
  <polygon points="8,0 8,1 8,2 9,3 9,4 9,6 9,9 10,12 10,15 10,18 11,23 12,27 13,32 14,36 14,38 15,44 16,50 18,54 20,59 21,62 22,66 24,71 26,75 27,81 29,85 29,87 30,89 31,91 33,94 34,97 36,99 37,101 40,104 43,106 44,108 46,109 49,111 50,111 52,111 57,112 58,112 60,112 64,113 64,114 66,117 67,119 69,121 71,124 68,124 70,124 69,124 70,124 73,124 78,122 79,122 79,124 79,126 78,128 78,130 78,131 78,132 78,133 76,133 74,134 73,135 72,136 71,136 70,137 69,138 68,140 66,142 66,146 66,148 66,151 67,154 68,156 68,160 68,163 69,165 70,168 71,171 72,174 73,175 73,177 73,179 72,182 72,184 72,186 72,189 72,193 71,199 71,203 70,208 69,210 69,211 68,214 66,217 66,218 64,220 63,222 62,224 61,227 59,230 57,233 56,235 55,237 55,238 53,240 53,242 52,244 51,245 50,249 50,252 49,253 49,254 49,257 48,259 48,262 48,267 48,271 49,275 49,277 49,279 49,282 49,285 49,288 49,293 49,296 48,297 48,298 48,299 47,301 46,305 45,310 45,313 45,316 45,321 44,325 43,329 43,332 43,334 43,337 43,339 47,342 46,342 47,342 48,342 50,342 50,343 50,344 50,345 51,348 52,352 54,357 55,362 56,367 58,371 59,374 59,378 61,382 62,384 62,386 63,394 64,400 65,404 66,407 66,410 67,416 69,423 71,429 72,434 74,438 75,440 76,442 76,446 77,450 77,454 78,459 80,463 82,467 84,471 86,474 86,475 88,478 90,481 93,484 95,486 96,488 100,491 105,494 113,497 116,498 117,498 117,499 119,501 125,506 127,508 128,508 135,512 140,513 139,513 140,514 146,516 145,515 145,516 150,516 150,517 150,518 150,519 150,520 150,522 151,524 151,525 152,527 153,529 154,531 156,533 157,537 159,540 161,546 162,551 162,557 164,561 165,563 166,565 167,569 168,573 169,575 169,577 170,580 171,583 172,586 174,594 175,596 175,599 177,601 178,603 178,605 179,609 181,612 182,613 183,614 185,616 191,618 192,618 193,619 194,621 195,623 197,624 198,624 200,628 202,630 203,630 204,631 204,633 205,635 206,637 208,640 209,641 209,642 210,644 213,650 214,653 214,655 214,657 214,659 214,660 214,661 214,662 214,663 215,665 215,666 215,667 215,668 215,669 215,670 216,671 216,672 216,673 216,674 216,675 216,676 216,677 216,678 216,679 216,680 217,681 217,682 247,682 246,680 246,674 246,670 246,663 247,659 247,656 246,653 246,650 246,649 245,648 244,645 243,644 243,643 242,641 241,639 240,638 238,634 236,631 233,628 233,627 232,625 229,622 225,617 224,615 223,613 221,611 220,609 218,607 217,605 216,604 216,603 213,600 212,597 211,597 211,595 209,592 208,590 207,587 207,586 206,583 206,581 205,579 204,577 203,575 202,572 202,570 201,568 200,566 200,564 199,561 199,558 199,557 199,556 199,557 201,559 206,562 208,564 209,564 210,564 212,564 214,565 217,565 218,565 218,566 221,566 222,567 224,569 226,570 226,571 228,571 228,573 230,578 231,583 233,587 235,592 236,594 237,597 239,600 240,603 241,606 243,610 244,612 245,615 247,619 248,620 249,623 250,626 251,629 253,633 255,636 256,637 257,639 259,642 260,645 261,647 262,649 264,652 265,657 266,660 267,663 269,669 272,677 273,681 560,682 561,681 564,673 568,664 569,661 570,657 571,656 571,654 573,649 573,647 574,644 575,641 576,639 577,635 579,633 580,631 581,628 584,626 585,623 588,620 592,617 594,616 595,614 599,611 601,610 602,609 603,607 608,604 611,602 613,601 615,600 623,595 626,592 627,591 628,591 629,590 629,589 630,589 631,588 633,587 633,586 634,586 636,585 639,585 644,583 650,582 652,581 656,581 662,581 670,581 684,580 696,579 703,580 706,580 709,581 713,581 715,582 722,584 725,584 729,583 730,583 731,583 734,583 735,582 738,581 741,580 742,579 743,578 744,576 744,575 744,574 743,573 741,571 740,571 738,570 735,569 732,568 731,567 727,564 725,562 724,561 724,560 724,559 724,558 724,557 724,556 726,555 728,553 730,552 733,550 736,548 738,547 741,546 744,544 748,542 751,541 753,540 755,539 759,538 762,538 765,538 767,537 772,537 774,537 775,537 778,536 782,535 783,535 784,535 786,535 788,534 789,534 790,534 791,534 802,533 807,532 809,531 815,530 822,530 825,529 828,529 832,530 837,531 841,533 842,534 848,537 853,541 857,545 862,548 865,553 869,557 872,562 876,567 881,572 885,576 888,580 891,583 893,586 895,589 897,592 899,594 901,596 909,601 911,603 913,605 915,606 916,607 918,608 919,608 920,608 920,609 921,610 923,612 925,614 926,615 928,616 929,616 930,617 931,617 933,617 935,617 937,616 940,615 943,612 945,610 945,605 945,598 945,594 946,590 946,582 945,571 943,564 941,559 939,553 936,548 933,545 932,544 930,542 928,540 924,537 918,533 915,530 912,527 909,524 906,521 902,517 899,514 896,511 893,509 890,505 887,502 886,500 884,497 883,494 882,490 882,487 881,482 880,473 880,470 881,467 881,465 882,463 883,460 884,457 885,455 887,451 889,447 890,445 892,442 893,439 895,436 897,433 897,431 898,430 898,429 899,427 900,425 900,423 901,422 901,420 902,418 902,417 903,417 903,416 906,412 908,410 910,408 913,404 916,401 920,397 922,395 925,391 927,389 928,386 930,384 932,381 933,378 934,375 935,373 937,371 938,368 939,365 940,363 941,362 941,360 942,359 943,357 944,355 945,352 947,348 948,346 949,343 950,340 951,338 951,335 951,334 952,333 952,331 951,329 951,327 950,325 949,323 948,322 948,321 947,321 946,321 946,320 945,319 944,319 943,319 941,318 940,317 939,317 938,317 937,316 936,316 934,316 933,316 933,315 934,315 934,314 934,313 934,311 935,309 935,307 935,305 936,303 936,301 937,300 937,298 937,296 937,293 937,290 937,285 936,282 936,280 936,275 936,270 936,266 936,260 936,257 936,255 937,253 937,250 937,247 938,245 938,244 938,243 939,242 940,241 940,239 941,238 941,237 941,236 941,235 941,234 941,233 941,232 941,230 941,229 941,228 942,228 942,226 942,225 943,224 943,222 944,221 945,220 946,218 947,217 948,215 949,213 951,211 953,210 954,208 957,204 958,202 961,199 962,198 963,197 963,196 963,195 964,194 965,193 965,192 965,191 966,190 966,189 967,188 967,187 967,186 968,184 968,183 969,182 969,181 970,180 971,178 972,178 974,177 975,177 976,176 978,176 980,175 981,174 982,174 984,173 986,172 987,171 988,170 990,169 992,169 992,168 993,167 994,166 994,164 994,162 994,160 994,158 994,156 992,152 991,149 989,146 988,146 987,145 986,145 985,145 983,146 978,148 973,150 971,151 969,152 967,152 966,153 964,153 962,153 959,152 955,150 953,148 951,146 950,144 950,142 952,140 955,138 957,136 960,133 962,131 963,130 964,129 969,125 975,119 975,117 976,114 977,112 977,109 979,107 979,105 980,103 981,101 981,99 982,96 983,94 984,92 985,90 985,88 987,86 987,83 989,80 989,78 990,75 991,72 993,68 994,65 995,60 996,57 997,53 998,50 998,44 999,39 999,35 999,31 999,26 999,22 999,18 999,14 999,9 998,4 998,1" fill="#d9c4a8" stroke="#8b7355" stroke-width="2"/>
  
  <!-- Traced lakes -->
  <polyline points="696,269 697,269 698,269 698,268 699,267 700,266 700,265 701,265 702,263 703,262 703,261 704,261 704,260 704,259 704,258 704,257 704,256 704,255 704,254 705,253 705,251 706,250 706,249 706,247 706,245 706,244 706,243 705,242 704,240 704,237 703,236 702,235 702,233 700,232 700,230 698,228 698,227 696,225 695,223 695,222 694,220 694,219 693,218 692,216 691,214 691,213 691,212 691,211 691,209 691,206 691,205 692,203 692,202 692,201 692,200 692,198 693,197 693,196 694,195 695,194 695,193 696,191 697,190 697,188 697,186 698,184 700,182 700,181 701,181 701,182 702,182 702,183 703,184 704,184 704,183 704,181 705,180 706,179 707,178 708,177 709,175 709,174 709,173 709,172 709,171 709,170 710,170 710,169 710,168 710,167 711,166 712,165 712,164 713,164 713,163 714,163 714,162 715,162 716,162 717,162 718,162 719,162 719,163 720,163 721,164 721,165 722,165 723,166 724,166 726,166 729,166 731,166 732,166 733,166 734,166 735,167 736,167 736,168 737,168 738,168 738,169 739,169 741,170 741,171 742,171 743,173 743,175 743,176 743,177 744,178 744,179 744,180 744,181 744,182 745,183 745,184 745,185 745,186 745,187 745,188 745,189 745,190 744,191 744,192 744,193 743,195 743,197 743,198 743,199 743,200 743,201 743,202 742,203 742,204 741,204 741,205 741,206 742,206 743,206 746,206 748,206 747,205 747,203 748,202 748,201 749,201 749,200 751,198 752,197 753,197 754,196 755,196 756,196 756,195 757,195 758,196 758,197 760,199 761,200 761,201 762,202 763,202 763,203 764,203 764,204 764,205 765,205 765,206 766,206 766,207 767,207 767,208 768,209 770,211 770,212 771,212 771,213 771,214 772,215 773,216 773,218 774,218 774,219 774,220 775,220 775,221 775,222 776,222 776,223 776,224 775,224 775,225 775,226 774,226 774,227 773,227 773,228 772,228 771,229 770,230 770,231 769,231 769,232 769,233 768,233 768,234 768,235 768,236 768,237 768,238 768,239 768,240 767,240 767,241 766,241 766,242 766,243 766,244 767,244 768,244 768,245 769,245 770,245 770,246 771,246 771,247 772,247 773,247 774,247 775,247 776,247 777,247 778,248 779,248 780,248 781,248 782,248 783,248 784,247 785,247 785,246 787,245 788,244 789,243 790,242 791,242 791,241 792,240 792,239 793,239 793,238 795,236 796,235 797,234 799,232 802,230 802,229 803,229 804,228 805,227 806,226 807,225 808,224 809,223 809,222 810,222 810,221 811,220 812,219 813,218 813,217 814,216 814,215 814,214 815,213 815,212 815,211 815,210 816,209 816,208 818,206 818,205 819,204 819,203 820,202 820,201 821,200 821,199 822,197 823,196 823,195 824,194 824,193 824,192 825,191 825,190 826,190 826,189 827,188 827,187 828,187 829,185 830,184 831,183 833,181 834,181 835,181 835,180 836,180 837,180 838,180 839,180 840,180 841,180 842,180 843,180 844,180 845,180 846,180 847,180 848,180 849,180 850,180 851,180 852,180 853,180 854,179 855,178 856,178 857,177 858,177 859,176 859,175 860,175 860,174 861,174 861,172 862,171 862,170 863,169 863,167 863,165 864,164 864,163 864,162 864,161 863,161 863,160 863,159 862,159 861,159 861,158 861,157 860,157 859,157 859,156 858,156 857,156 856,156 855,156 854,156 853,156 853,157 852,157 852,158 851,158 851,159 851,160 852,160 852,161 853,161 854,161 855,161 856,161 856,162 856,164 856,165 856,166 855,166 855,167 854,167 854,168 852,169 851,169 851,170 850,170 849,170 848,170 847,171 846,171 845,171 845,172 844,172 843,172 842,173 841,174 840,174 840,175 839,175 838,175 837,175 836,175 835,175 834,175 833,175 832,175 831,175 830,175 830,176 829,176 828,176 828,177 827,177 826,177 826,178 825,178 825,179 824,179 823,180 822,181 821,183 820,183 820,184 819,185 818,186 818,187 817,188 816,189 815,190 814,191 814,192 813,193 813,194 812,197 812,199 812,200 812,201 811,202 811,203 811,204 811,205 811,206 810,207 810,209 809,210 809,211 809,212 808,212 807,212 806,213 805,214 804,214 802,215 801,216 800,216 799,217 798,218 797,218 796,219 795,219 793,220 792,221 792,222 791,222 791,223 791,224 791,225 790,225 790,226 789,227 789,228 788,228 788,229 788,230 787,230 787,231 786,231 786,232 785,232 784,232 784,233 783,233 782,234 781,234 780,234 779,234 777,234 776,234 775,234 774,233 774,232 774,231 775,231 775,230 776,230 777,229 777,228 778,228 780,225 781,223 781,222 781,221 781,220 782,219 782,218 782,216 782,215 782,214 782,212 782,211 782,209 781,208 781,207 780,205 780,203 779,202 779,201 779,200 778,199 778,197 777,195 777,193 776,191 776,190 776,189 775,189 775,188 775,187 774,187 774,186 774,185 774,184 774,182 775,179 776,177 776,176 776,174 775,172 775,170 774,168 774,167 773,167 773,166 773,165 772,164 772,163 773,163 774,163 776,162 778,161 780,161 781,161 783,162 786,163 787,164 788,164 789,164 792,163 794,162 795,162 795,163 795,164 796,165 797,168 798,169 798,168 799,166 799,162 799,161 798,160 797,160 795,159 795,158 795,157 797,157 799,156 800,156 800,155 799,155 798,154 797,153 796,152 794,151 792,150 790,149 789,148 787,147 786,147 785,147 783,147 782,146 780,146 777,145 771,144 768,143 767,143 766,143 765,143 764,143 762,144 761,144 757,145 755,145 754,145 753,146 751,146 749,147 748,147 747,147 746,147 745,148 744,148 743,148 743,149 742,149 741,149 740,150 739,150 738,150 737,150 736,150 735,150 734,150 733,150 732,150 731,150 730,150 729,150 728,150 727,150 726,150 725,150 724,149 723,149 722,149 721,149 720,148 718,148 716,147 714,146 712,145 711,145 710,144 709,144 709,143 708,143 706,141 704,139 704,138 703,138 703,137 702,137 701,135 699,133 698,133 698,132 697,131 696,130 695,129 694,127 693,126 693,125 692,125 692,123 691,122 690,120 689,119 688,118 688,117 687,117 686,116 685,116 685,115 683,114 680,114 679,114 678,113 675,113 673,112 671,112 670,110 669,110 669,109 668,109 667,108 666,106 663,104 662,104 661,104 657,103 652,103 648,102 646,102 645,102 644,102 643,103 642,103 641,104 640,104 639,104 638,103 637,103 636,103 636,102 635,102 633,102 632,101 632,102 632,103 632,104 631,104 631,105 631,106 630,106 630,107 629,108 629,110 629,111 630,113 630,114 630,115 630,116 629,117 629,118 628,118 627,118 626,118 625,118 625,117 624,117 624,116 624,115 623,114 623,115 622,116 622,118 621,119 621,120 621,121 621,122 620,124 619,126 619,127 618,127 617,129 615,130 612,133 611,133 609,135 607,137 604,138 602,139 601,140 600,142 600,143 599,143 598,145 598,147 597,148 597,149 596,150 595,151 594,152 594,153 594,154 593,154 592,156 591,157 590,158 589,160 589,161 588,162 588,164 587,164 587,165 587,166 586,166 586,167 586,168 586,170 587,170 588,170 589,169 590,168 592,167 594,166 597,163 599,162 600,161 602,160 604,159 605,159 607,159 609,159 611,160 612,160 612,161 612,162 612,164 612,165 612,166 613,167 613,168 613,169 614,169 615,169 616,169 616,168 617,166 619,163 621,159 622,158 623,156 625,154 627,152 629,150 631,148 634,146 635,145 637,143 638,142 639,142 639,141 640,141 642,140 642,139 644,138 644,137 645,137 646,137 647,137 648,137 649,137 649,138 649,139 649,140 649,141 649,142 648,143 648,145 647,147 646,147 646,148 646,149 646,150 647,150 648,150 649,150 650,150 651,150 652,149 653,149 655,149 656,149 657,149 658,150 659,151 661,152 662,153 663,153 663,154 664,156 665,156 666,156 667,157 668,157 669,158 671,158 674,158 675,158 676,158 677,158 677,157 678,157 679,156 681,155 683,154 685,153 686,153 686,152 688,151 689,151 689,150 690,150 690,149 691,149 692,148 693,148 694,148 695,148 696,148 696,147 697,147 697,148 698,148 698,149 698,151 699,152 699,153 699,156 700,157 700,158 700,159 699,160 699,161 698,161 698,162 698,163 697,164 696,164 696,165 695,165 695,166 694,167 692,168 691,168 689,170 688,170 687,170 686,171 685,172 684,172 683,173 682,173 681,174 679,175 677,176 677,177 676,177 676,178 675,178 675,179 674,179 673,180 673,181 672,181 672,182 672,183 672,185 672,186 672,187 672,189 673,191 673,192 673,193 673,194 674,194 674,195 675,195 676,195 676,196 676,197 676,198 676,199 676,200 677,200 677,201 677,202 677,203 677,204 677,205 677,206 677,207 677,208 677,209 677,210 677,212 677,213 677,214 677,215 677,216 678,216 678,217 678,218 678,219 678,220 679,220 679,222 679,224 679,225 679,226 679,228 679,230 679,231 679,232 679,233 679,234 679,236 679,237 678,238 678,240 678,241 678,242 679,242 679,243 679,244 680,245 680,247 680,248 681,249 681,250 682,251 683,252 683,253 684,255 685,256 685,257 686,257 686,258 686,261 687,263 687,264 688,264 688,265 689,265 689,266 690,266 690,267 691,267 691,268 691,269 692,269 693,269 693,270 694,270 695,270 696,270 696,269 697,269 698,269 698,268 699,268 699,267 700,267 701,267 701,266 700,266" fill="#1a3a52" stroke="#2a5280" stroke-width="3" opacity="0.8"/>
</svg>